<svg width="240" height="240" viewBox="0 0 240 240" xmlns="http://www.w3.org/2000/svg" role="img" aria-labelledby="title desc">
  <title id="title">Huggster Mascot</title>
  <desc id="desc">Stylised circle character representing the Huggster helper.</desc>
  <defs>
    <linearGradient id="bodyGradient" x1="0" x2="1" y1="0" y2="1">
      <stop offset="0" stop-color="#34d399" />
      <stop offset="1" stop-color="#0ea5e9" />
    </linearGradient>
    <linearGradient id="shadowGradient" x1="0" x2="1" y1="0.5" y2="1">
      <stop offset="0" stop-color="#1e293b" stop-opacity="0.2" />
      <stop offset="1" stop-color="#0f172a" stop-opacity="0.4" />
    </linearGradient>
  </defs>
  <rect width="240" height="240" rx="36" fill="#f8fafc" />
  <ellipse cx="120" cy="176" rx="80" ry="26" fill="url(#shadowGradient)" />
  <circle cx="120" cy="116" r="72" fill="url(#bodyGradient)" />
  <circle cx="92" cy="102" r="12" fill="#ffffff" />
  <circle cx="148" cy="102" r="12" fill="#ffffff" />
  <circle cx="92" cy="102" r="6" fill="#0f172a" />
  <circle cx="148" cy="102" r="6" fill="#0f172a" />
  <path d="M92 144c10 10 20 14 28 14s18-4 28-14" stroke="#0f172a" stroke-width="8" stroke-linecap="round" fill="none" />
  <path d="M48 124c-6-20 10-54 46-74" stroke="#38bdf8" stroke-width="10" stroke-linecap="round" fill="none" />
  <path d="M192 124c6-20-10-54-46-74" stroke="#22c55e" stroke-width="10" stroke-linecap="round" fill="none" />
  <text x="120" y="212" text-anchor="middle" font-family="'Inter', Arial, sans-serif" font-size="18" font-weight="600" fill="#0f172a">Huggster</text>
</svg>
